<svg id="Layer_1" enable-background="new 0 0 512.001 512.001" height="512" viewBox="0 0 512.001 512.001" width="512" xmlns="http://www.w3.org/2000/svg"><g><g><path d="m303.1 108.59h-94.36l-2.485 3.53v27.914l2.095 3.181h94.875l2.526-3.181v-27.914z" fill="#ffe07d"/><path d="m256.003 112.12 2.485-3.53h-49.748l-2.485 3.53v27.914l2.095 3.181h49.749l-2.096-3.181z" fill="#ffd064"/><path d="m320.011 140.034h-128.016c-7.486 0-13.555 6.169-13.555 13.778s6.069 13.778 13.555 13.778h128.015c7.486 0 13.555-6.169 13.555-13.778s-6.068-13.778-13.554-13.778z" fill="#fff0af"/><path d="m228.189 153.812c0-7.609 6.069-13.778 13.554-13.778h-49.748c-7.486 0-13.555 6.169-13.555 13.778s6.069 13.778 13.555 13.778h49.748c-7.486 0-13.554-6.169-13.554-13.778z" fill="#ffe07d"/><path d="m301.185 85.423h-90.364c-7.486 0-13.555 6.157-13.555 13.751s6.069 13.751 13.555 13.751h90.364c7.486 0 13.555-6.157 13.555-13.751s-6.069-13.751-13.555-13.751z" fill="#ffd064"/><path d="m247.015 99.174c0-7.594 6.068-13.751 13.554-13.751h-49.748c-7.486 0-13.554 6.157-13.554 13.751s6.068 13.751 13.554 13.751h49.748c-7.486 0-13.554-6.157-13.554-13.751z" fill="#ffc250"/><path d="m428.1 167.143h-344.194c-32.581 0-59.239 26.657-59.239 59.239v218.881c0 32.581 26.657 59.238 59.239 59.238h344.194c32.581 0 59.239-26.657 59.239-59.238v-218.881c0-32.581-26.658-59.239-59.239-59.239z" fill="#fcbee6"/><path d="m74.415 445.263v-218.881c0-32.581 26.657-59.239 59.239-59.239h-49.748c-32.581 0-59.238 26.657-59.238 59.239v218.881c0 32.581 26.657 59.239 59.238 59.239h49.748c-32.581-.001-59.239-26.658-59.239-59.239z" fill="#ff94d5"/><path d="m83.906 207.305c-10.34 0-19.077 8.736-19.077 19.077v218.881c0 10.341 8.736 19.077 19.077 19.077h344.194c10.34 0 19.077-8.736 19.077-19.077v-218.881c0-10.341-8.736-19.077-19.077-19.077z" fill="#ff94d5"/><path d="m114.577 445.263v-218.881c0-10.341 8.736-19.077 19.077-19.077h-49.748c-10.34 0-19.077 8.736-19.077 19.077v218.881c0 10.341 8.736 19.077 19.077 19.077h49.748c-10.341 0-19.077-8.736-19.077-19.077z" fill="#ff72c7"/><ellipse cx="256.003" cy="335.822" fill="#dbedff" rx="113.457" ry="57.272"/><path d="m206.255 335.823c0-26.048 34.45-48.031 81.602-54.98-10.107-1.49-20.794-2.292-31.854-2.292-62.66 0-113.457 25.641-113.457 57.272 0 31.63 50.796 57.272 113.457 57.272 11.06 0 21.748-.802 31.854-2.292-47.152-6.95-81.602-28.933-81.602-54.98z" fill="#b5dcff"/><path d="m321.517 7.5h-131.028c-6.627 0-12.049 5.422-12.049 12.049v54.218c0 6.627 5.422 12.049 12.049 12.049h131.028c6.627 0 12.049-5.422 12.049-12.049v-54.218c-.001-6.627-5.423-12.049-12.049-12.049z" fill="#ffe07d"/><path d="m228.189 73.767v-54.218c0-6.627 5.422-12.048 12.049-12.048h-49.748c-6.627 0-12.049 5.422-12.049 12.048v54.218c0 6.627 5.422 12.048 12.049 12.048h49.748c-6.628.001-12.049-5.421-12.049-12.048z" fill="#ffd064"/><path d="m226.384 7.5v35.476c0 6.627 5.422 12.049 12.049 12.049h35.141c6.627 0 12.048-5.422 12.048-12.049v-35.476z" fill="#ffd064"/><path d="m256.003 42.977v-35.477h-29.619v35.476c0 6.627 5.422 12.048 12.048 12.048h29.619c-6.626.001-12.048-5.421-12.048-12.047z" fill="#ffc250"/></g><g><path d="m83.904 199.804c-14.406 0-26.577 12.171-26.577 26.577v218.881c0 14.406 12.171 26.577 26.577 26.577h344.194c14.405 0 26.576-12.171 26.576-26.577v-218.881c0-14.406-12.171-26.577-26.576-26.577zm355.77 26.577v218.881c0 6.167-5.409 11.577-11.576 11.577h-344.194c-6.167 0-11.577-5.41-11.577-11.577v-218.881c0-6.167 5.41-11.577 11.577-11.577h344.194c6.167 0 11.576 5.41 11.576 11.577z"/><path d="m256 271.05c-67.826 0-120.957 28.451-120.957 64.772 0 34.256 46.141 59.637 102.873 64.071 4.133.326 7.738-2.764 8.062-6.893.322-4.129-2.764-7.739-6.894-8.062-49.93-3.903-89.041-25.477-89.041-49.117 0-25.209 45.166-49.772 105.957-49.772 60.218 0 105.957 24.295 105.957 49.772 0 23.64-39.111 45.214-89.041 49.117-4.13.323-7.216 3.932-6.894 8.062.324 4.141 3.946 7.217 8.062 6.893 54.214-4.237 102.873-28.571 102.873-64.071.001-36.321-53.13-64.772-120.957-64.772z"/><path d="m428.097 159.643h-87.931c.578-1.919.897-3.95.897-6.055 0-11.609-9.445-21.054-21.055-21.054h-6.76v-15.937c5.426-3.812 8.988-10.107 8.988-17.227 0-2.105-.319-4.135-.896-6.054h.174c10.779 0 19.549-8.77 19.549-19.549v-54.219c0-10.778-8.77-19.548-19.549-19.548-1.888 0-129.893 0-131.027 0-10.779 0-19.549 8.77-19.549 19.548v54.218c0 10.779 8.77 19.549 19.549 19.549h.174c-.577 1.919-.896 3.949-.896 6.054 0 7.12 3.562 13.415 8.988 17.227v15.937h-6.76c-11.609 0-21.055 9.445-21.055 21.054 0 2.105.319 4.135.897 6.055h-87.931c-36.8 0-66.739 29.939-66.739 66.739v218.881c0 36.8 29.939 66.739 66.739 66.739h344.193c36.8 0 66.739-29.939 66.739-66.739v-91.94c0-4.142-3.357-7.5-7.5-7.5s-7.5 3.358-7.5 7.5v91.94c0 28.529-23.21 51.739-51.739 51.739h-344.193c-28.529 0-51.739-23.21-51.739-51.739v-218.881c0-28.529 23.21-51.739 51.739-51.739h344.193c28.529 0 51.739 23.21 51.739 51.739v91.94c0 4.142 3.357 7.5 7.5 7.5s7.5-3.358 7.5-7.5v-91.94c0-36.799-29.939-66.738-66.739-66.738zm-194.216-144.643h44.238v27.976c0 2.465-2.083 4.548-4.549 4.548h-35.14c-2.466 0-4.549-2.083-4.549-4.548zm-43.394 63.315c-2.466 0-4.549-2.083-4.549-4.549v-54.218c0-2.465 2.083-4.548 4.549-4.548h28.395v27.976c0 10.779 8.77 19.548 19.549 19.548h35.141c10.779 0 19.549-8.77 19.549-19.548v-27.976h28.395c2.466 0 4.549 2.083 4.549 4.548v54.218c0 2.466-2.083 4.549-4.549 4.549-14.894 0-116.128 0-131.029 0zm20.332 27.109c-3.218 0-6.055-2.624-6.055-6.055 0-3.338 2.716-6.054 6.055-6.054h90.363c3.339 0 6.055 2.716 6.055 6.054 0 3.449-2.855 6.055-6.055 6.055zm87.43 15v12.109h-84.496v-12.109zm21.759 39.219h-128.015c-3.339 0-6.055-2.716-6.055-6.055s2.716-6.054 6.055-6.054h128.016c3.339 0 6.055 2.716 6.055 6.054s-2.717 6.055-6.056 6.055z"/></g></g></svg>